<svg width="188" height="62" viewBox="0 0 188 62" fill="none" xmlns="http://www.w3.org/2000/svg">
<path d="M184.793 47.6253L182.195 51.842C182.368 51.802 182.528 51.782 182.674 51.782C184.113 51.782 185.259 52.255 186.112 53.2009C186.977 54.1468 187.41 55.2526 187.41 56.5183C187.41 57.7707 186.951 58.8765 186.032 59.8357C185.126 60.7816 183.953 61.2546 182.514 61.2546C181.075 61.2546 179.896 60.7816 178.977 59.8357C178.071 58.8898 177.618 57.7973 177.618 56.5583C177.618 55.5857 177.878 54.6198 178.398 53.6605L182.794 46.3862L184.793 47.6253ZM184.273 54.7197C183.807 54.2534 183.22 54.0203 182.514 54.0203C181.808 54.0203 181.215 54.2534 180.736 54.7197C180.269 55.1727 180.036 55.7722 180.036 56.5183C180.036 57.2644 180.269 57.8706 180.736 58.3369C181.215 58.7899 181.808 59.0164 182.514 59.0164C183.22 59.0164 183.807 58.7899 184.273 58.3369C184.753 57.8706 184.992 57.2644 184.992 56.5183C184.992 55.7722 184.753 55.1727 184.273 54.7197Z" fill="#F97316"/>
<path d="M166.553 61.0148L171.689 54.4999C171.729 54.4599 171.849 54.3201 172.049 54.0802C172.249 53.8271 172.395 53.6273 172.488 53.4807C172.595 53.3208 172.722 53.1143 172.868 52.8612C173.028 52.5947 173.141 52.3216 173.208 52.0418C173.274 51.7621 173.308 51.4756 173.308 51.1825C173.308 50.5963 173.115 50.09 172.728 49.6637C172.355 49.2374 171.856 49.0242 171.229 49.0242C170.843 49.0242 170.49 49.0975 170.17 49.244C169.864 49.3773 169.624 49.5438 169.451 49.7436C169.278 49.9435 169.131 50.1433 169.011 50.3432C168.905 50.543 168.831 50.7162 168.791 50.8628L168.731 51.0626L166.593 50.2832C166.62 50.19 166.66 50.0634 166.713 49.9035C166.766 49.7436 166.913 49.4639 167.153 49.0642C167.392 48.6645 167.666 48.3114 167.972 48.005C168.292 47.6986 168.738 47.4188 169.311 47.1657C169.897 46.9125 170.537 46.7859 171.229 46.7859C172.668 46.7859 173.774 47.2056 174.547 48.045C175.32 48.871 175.706 49.9035 175.706 51.1425C175.706 52.3283 175.3 53.474 174.487 54.5799L171.269 58.7366H175.766V61.0148H166.553Z" fill="#F97316"/>
<path d="M31.1739 32.4014L22.6427 55.966C22.2134 57.1529 20.6196 57.3349 19.9368 56.2744L0.244373 25.7335C-0.016416 25.3292 -0.0712095 24.8258 0.0931712 24.3735L8.65588 1.00135C9.08867 -0.180449 10.6756 -0.358538 11.3584 0.694313L31.0175 31.0433C31.2784 31.4476 31.3373 31.9508 31.1739 32.4014Z" fill="#111827"/>
<path d="M59.6877 32.405L51.1004 55.9538C50.669 57.1371 49.0785 57.3173 48.3957 56.2602L32.9072 32.3269C32.645 31.9226 32.5895 31.4183 32.755 30.9656L41.3616 7.47605C41.7945 6.29426 43.3814 6.11616 44.0642 7.16972L59.5313 31.0441C59.7959 31.448 59.8522 31.9526 59.6877 32.405Z" fill="#111827"/>
<path d="M84.7687 31.8754H62.0589C61.0001 31.8754 60.2645 30.815 60.631 29.8171L68.8432 7.44103C69.276 6.26133 70.863 6.08115 71.5458 7.13608L86.0428 29.5122C86.7024 30.5278 85.9755 31.8754 84.7687 31.8754Z" fill="#111827"/>
<path d="M91.5918 9.05896H93.9711L95.7106 13.3941L97.5393 9.05896H99.3337L101.109 13.3941L102.92 9.05896H105.086L101.02 17.9445L98.321 11.9136L95.6569 17.9445L91.5918 9.05896Z" fill="#111827"/>
<path d="M106.671 10.1294C107.541 9.27311 108.603 8.84549 109.859 8.84549C111.112 8.84549 112.176 9.27311 113.045 10.1294C113.916 10.9864 114.351 12.0392 114.351 13.2879C114.351 14.5255 113.916 15.5752 113.045 16.4375C112.176 17.3 111.112 17.7308 109.859 17.7308C108.603 17.7308 107.541 17.3 106.671 16.4375C105.802 15.5749 105.366 14.5255 105.366 13.2879C105.366 12.0396 105.802 10.9864 106.671 10.1294ZM108.172 15.019C108.598 15.4947 109.16 15.7331 109.859 15.7331C110.557 15.7331 111.119 15.4947 111.545 15.019C111.971 14.5433 112.184 13.9661 112.184 13.2879C112.184 12.6097 111.971 12.0333 111.545 11.5576C111.119 11.0819 110.556 10.8435 109.859 10.8435C109.16 10.8435 108.598 11.0819 108.172 11.5576C107.746 12.0333 107.533 12.6101 107.533 13.2879C107.533 13.9658 107.746 14.5433 108.172 15.019Z" fill="#111827"/>
<path d="M120.23 8.84549C120.454 8.84549 120.688 8.86919 120.93 8.91694C121.173 8.96468 121.359 9.01137 121.49 9.05913L121.685 9.1121L120.939 11.039C120.678 10.9083 120.341 10.8428 119.927 10.8428C119.548 10.8428 119.202 10.9379 118.889 11.1286C118.575 11.3192 118.352 11.5091 118.222 11.6998L118.045 11.9849V17.5161H115.914V9.05913H117.938V10.2904C117.962 10.2549 117.991 10.2047 118.027 10.1385C118.063 10.0736 118.151 9.95724 118.293 9.79065C118.435 9.62406 118.587 9.47839 118.747 9.35362C118.906 9.2285 119.12 9.1121 119.385 9.00511C119.652 8.89846 119.933 8.84549 120.23 8.84549Z" fill="#111827"/>
<path d="M123.031 17.5171V4.89783H125.161V17.5171H123.031Z" fill="#111827"/>
<path d="M135.588 4.89784V17.5171H133.616V16.4109C133.593 16.4464 133.563 16.4938 133.528 16.5537C133.492 16.613 133.397 16.72 133.243 16.8751C133.09 17.0294 132.923 17.1629 132.746 17.2759C132.569 17.3888 132.332 17.493 132.035 17.5882C131.739 17.6834 131.42 17.7303 131.077 17.7303C129.964 17.7303 129.002 17.3089 128.192 16.4643C127.381 15.6194 126.976 14.561 126.976 13.2875C126.976 12.0155 127.381 10.9567 128.192 10.1122C129.002 9.26746 129.964 8.84541 131.077 8.84541C131.55 8.84541 131.985 8.93742 132.381 9.12178C132.778 9.30615 133.06 9.48737 133.225 9.6658L133.456 9.95088V4.89749H135.588V4.89784ZM133.456 14.5554V12.0217C133.409 11.9381 133.341 11.8311 133.253 11.7004C133.163 11.569 132.944 11.3941 132.596 11.1735C132.246 10.9535 131.865 10.8434 131.45 10.8434C130.74 10.8434 130.177 11.0727 129.763 11.531C129.349 11.9886 129.142 12.5745 129.142 13.2879C129.142 14.002 129.349 14.5878 129.763 15.0454C130.177 15.5034 130.74 15.733 131.45 15.733C131.711 15.733 131.958 15.6909 132.195 15.6079C132.432 15.525 132.624 15.4267 132.772 15.3138C132.92 15.2009 133.048 15.0872 133.154 14.9747C133.261 14.8617 133.339 14.7631 133.385 14.6805L133.456 14.5554Z" fill="#111827"/>
<path d="M107.506 30.7379L108.696 29.186C108.779 29.2811 108.895 29.3937 109.042 29.5244C109.191 29.6558 109.486 29.8342 109.93 30.0601C110.374 30.2866 110.809 30.3992 111.236 30.3992C111.696 30.3992 112.078 30.3344 112.38 30.2026C112.683 30.0726 112.834 29.882 112.834 29.6322C112.834 29.3701 112.727 29.1864 112.514 29.0787C112.301 28.971 111.851 28.8472 111.165 28.7044C109.081 28.2645 108.039 27.3724 108.039 26.0278C108.039 25.3259 108.369 24.7101 109.025 24.1811C109.681 23.6513 110.561 23.3875 111.663 23.3875C112.23 23.3875 112.777 23.4732 113.303 23.6462C113.83 23.8182 114.218 23.9939 114.467 24.1717L114.821 24.4223L113.756 25.9926C113.117 25.5047 112.419 25.2607 111.663 25.2607C111.235 25.2607 110.874 25.3315 110.579 25.4743C110.282 25.6173 110.134 25.8134 110.134 26.0637C110.134 26.3014 110.264 26.4771 110.524 26.5899C110.785 26.7028 111.317 26.8426 112.122 27.0086C113.069 27.2114 113.783 27.5028 114.261 27.8833C114.742 28.2645 114.982 28.8587 114.982 29.668C114.982 30.4058 114.635 31.0233 113.942 31.5234C113.25 32.0232 112.371 32.2721 111.305 32.2721C110.844 32.2721 110.397 32.2191 109.965 32.112C109.533 32.0044 109.175 31.8764 108.89 31.728C108.606 31.5797 108.355 31.4305 108.136 31.2822C107.917 31.1332 107.754 31.0059 107.648 30.8982L107.506 30.7379Z" fill="#111827"/>
<path d="M115.94 25.5274V23.6006H117.59V21.0847H119.721V23.6006H122.26V25.5274H119.721V28.9355C119.721 29.8281 120.088 30.2739 120.822 30.2739C120.964 30.2739 121.109 30.2501 121.257 30.2017C121.405 30.1546 121.515 30.1073 121.585 30.0596L121.709 29.9703L122.491 31.7192C121.959 32.0875 121.283 32.2719 120.467 32.2719C119.639 32.2719 118.951 31.9962 118.408 31.4427C117.863 30.8894 117.59 30.1666 117.59 29.2746V25.5274H115.94Z" fill="#111827"/>
<path d="M133.601 25.5282V23.6012H135.271V22.4012C135.271 21.3192 135.576 20.5186 136.186 20.0011C136.795 19.4839 137.496 19.2257 138.289 19.2257C138.632 19.2257 138.96 19.2612 139.274 19.3326C139.588 19.4034 139.816 19.4749 139.958 19.5463L140.154 19.6708L139.355 21.4738C139.141 21.3069 138.858 21.2234 138.502 21.2234C138.229 21.2234 137.978 21.3219 137.747 21.5182C137.517 21.7144 137.401 22.0444 137.401 22.508V23.6012H139.461V25.5282H137.401V32.0584H135.27V25.5282H133.601Z" fill="#111827"/>
<path d="M140.478 25.5281V23.601H142.146V21.1215C142.146 20.0393 142.451 19.2387 143.061 18.7211C143.67 18.2033 144.372 17.9452 145.164 17.9452C145.507 17.9452 145.836 17.9813 146.15 18.0528C146.464 18.1236 146.691 18.195 146.835 18.2664L147.029 18.3908L146.231 20.1933C146.017 20.0263 145.733 19.9434 145.378 19.9434C145.105 19.9434 144.853 20.0413 144.624 20.2383C144.393 20.4345 144.277 20.7645 144.277 21.228V23.601H146.336V25.5281H144.277V32.0583H142.146V25.5281H140.478Z" fill="#111827"/>
<path d="M149.537 21.854C149.928 21.854 150.26 21.717 150.532 21.4435C150.804 21.1699 150.94 20.8363 150.94 20.4442C150.94 20.0516 150.804 19.7187 150.532 19.4451C150.26 19.1714 149.928 19.0345 149.537 19.0345C149.148 19.0345 148.816 19.1714 148.543 19.4451C148.271 19.7187 148.136 20.0516 148.136 20.4442C148.136 20.8363 148.271 21.1699 148.543 21.4435C148.816 21.717 149.148 21.854 149.537 21.854Z" fill="#111827"/>
<path d="M150.586 24.6672C150.586 25.2558 150.112 25.7332 149.526 25.7332C148.94 25.7332 148.465 25.2561 148.465 24.6672V32.0587H150.596" fill="#111827"/>
<path d="M149.526 25.7326C150.111 25.7326 150.586 25.2553 150.586 24.6665C150.586 24.0777 150.111 23.6004 149.526 23.6004C148.94 23.6004 148.465 24.0777 148.465 24.6665C148.465 25.2553 148.94 25.7326 149.526 25.7326Z" fill="#111827"/>
<path d="M157.578 23.3863C158.43 23.3863 159.159 23.6741 159.762 24.2513C160.366 24.8284 160.668 25.6037 160.668 26.58V32.0574H158.537V27.1153C158.537 26.5326 158.383 26.0983 158.075 25.8125C157.766 25.5275 157.365 25.3842 156.868 25.3842C156.666 25.3842 156.471 25.4237 156.282 25.4999C156.092 25.5783 155.933 25.6673 155.803 25.7682C155.671 25.869 155.561 25.9732 155.465 26.0802C155.371 26.1879 155.306 26.2768 155.27 26.3486L155.199 26.473V32.0579H153.068V23.6002H155.056V24.8316C155.08 24.7959 155.112 24.7458 155.154 24.6795C155.195 24.6148 155.29 24.4984 155.438 24.3318C155.586 24.1648 155.749 24.0195 155.926 23.8947C156.104 23.7697 156.341 23.6532 156.638 23.5462C156.934 23.4395 157.246 23.3863 157.578 23.3863Z" fill="#111827"/>
<path d="M130.02 24.7119L129.764 24.3975C129.592 24.1689 129.308 23.9399 128.88 23.7391C128.454 23.5105 127.999 23.3969 127.457 23.3969C126.348 23.3969 125.381 23.8257 124.584 24.6547C123.787 25.5131 123.36 26.5709 123.36 27.8286C123.36 29.1164 123.758 30.1741 124.584 31.0038C125.381 31.8609 126.348 32.2609 127.457 32.2609C127.798 32.2609 128.112 32.2037 128.425 32.1187C128.709 32.0323 128.966 31.9187 129.137 31.8044C129.308 31.69 129.478 31.5466 129.62 31.4036C129.764 31.2606 129.876 31.1464 129.904 31.0886C129.934 31.0321 129.961 30.9757 129.99 30.9463V32.0612H131.954V23.6255H129.99V24.7119H130.02ZM129.849 29.1167L129.649 29.4018C129.506 29.6024 129.28 29.8018 128.966 30.0029C128.624 30.2022 128.254 30.288 127.857 30.288C127.145 30.288 126.575 30.0594 126.148 29.6024C125.722 29.1445 125.523 28.544 125.523 27.8578C125.523 27.1424 125.721 26.5709 126.148 26.1126C126.575 25.6549 127.145 25.427 127.857 25.427C128.112 25.427 128.368 25.455 128.596 25.5414C128.823 25.6263 129.023 25.7128 129.165 25.8271C129.308 25.9413 129.449 26.0557 129.563 26.1701C129.677 26.3129 129.763 26.3987 129.79 26.4558C129.82 26.513 129.849 26.5415 129.849 26.5986V29.1167Z" fill="#111827"/>
<path d="M168.765 31.2391C168.18 31.9696 167.382 32.3352 166.368 32.3352C165.249 32.3352 164.28 31.9103 163.464 31.0596C162.647 30.2088 162.239 29.1428 162.239 27.8617C162.239 26.5798 162.647 25.5134 163.464 24.663C164.28 23.8123 165.248 23.3875 166.368 23.3875C166.894 23.3875 167.368 23.4984 167.791 23.7196C168.212 23.9417 168.508 24.1654 168.675 24.3937L168.926 24.717V23.6029H170.911V32.1919C170.911 33.5933 170.472 34.6566 169.597 35.3808C168.721 36.1049 167.638 36.4685 166.352 36.4685C165.636 36.4685 164.943 36.3329 164.269 36.0642C163.595 35.7941 163.104 35.5216 162.794 35.2467L162.33 34.851L163.545 33.1978C163.628 33.2928 163.751 33.4099 163.911 33.5484C164.072 33.6859 164.401 33.8717 164.895 34.106C165.389 34.3387 165.876 34.4558 166.352 34.4558C167.15 34.4558 167.751 34.2579 168.158 33.8623C168.563 33.4674 168.765 32.9345 168.765 32.2633V31.2391ZM168.765 29.1372V26.5861C168.716 26.5017 168.649 26.3941 168.56 26.2628C168.47 26.1307 168.249 25.9535 167.897 25.732C167.546 25.5106 167.162 25.3999 166.744 25.3999C166.028 25.3999 165.462 25.6305 165.046 26.092C164.628 26.5527 164.42 27.1424 164.42 27.8617C164.42 28.58 164.628 29.1699 165.046 29.6314C165.462 30.0922 166.03 30.3229 166.744 30.3229C167.162 30.3229 167.537 30.2242 167.872 30.0259C168.204 29.8287 168.436 29.6275 168.568 29.424L168.765 29.1372Z" fill="#111827"/>
<path d="M79.9881 43.9813H83.0105V56.8875H79.9881V55.1994C79.9518 55.2538 79.9064 55.3264 79.852 55.4172C79.7975 55.5079 79.6523 55.6713 79.4163 55.9073C79.1804 56.1433 78.9262 56.352 78.6539 56.5335C78.3817 56.6969 78.0186 56.8512 77.5648 56.9964C77.111 57.1416 76.6209 57.2143 76.0945 57.2143C74.3882 57.2143 72.9088 56.5699 71.6563 55.281C70.4219 53.9922 69.8048 52.3767 69.8048 50.4344C69.8048 48.4921 70.4219 46.8766 71.6563 45.5878C72.9088 44.299 74.3882 43.6546 76.0945 43.6546C76.8932 43.6546 77.6102 43.827 78.2455 44.1719C78.899 44.4987 79.3528 44.8345 79.6069 45.1794L79.9881 45.6695V43.9813ZM79.7431 52.3676V48.5012C79.7249 48.4468 79.6886 48.3832 79.6342 48.3106C79.5797 48.2198 79.4617 48.0746 79.2802 47.875C79.0987 47.6753 78.899 47.4938 78.6812 47.3304C78.4633 47.167 78.1729 47.0218 77.8099 46.8947C77.465 46.7677 77.0929 46.7041 76.6935 46.7041C75.6044 46.7041 74.7331 47.0581 74.0796 47.766C73.4443 48.4558 73.1266 49.3453 73.1266 50.4344C73.1266 51.5235 73.4443 52.4221 74.0796 53.13C74.7331 53.8198 75.6044 54.1647 76.6935 54.1647C77.3107 54.1647 77.8734 54.0195 78.3817 53.729C78.8899 53.4205 79.2439 53.1119 79.4436 52.8033L79.7431 52.3676Z" fill="#111827"/>
<path d="M84.7597 43.9813H88.4083L91.0766 50.5978L93.8811 43.9813H96.6312L99.354 50.5978L102.131 43.9813H105.453L99.2179 57.541L95.0792 48.3378L90.9949 57.541L84.7597 43.9813Z" fill="#111827"/>
<path d="M116.124 43.9813H119.146V56.8875H116.124V55.1994C116.088 55.2538 116.042 55.3264 115.988 55.4172C115.933 55.5079 115.788 55.6713 115.552 55.9073C115.316 56.1433 115.062 56.352 114.79 56.5335C114.518 56.6969 114.155 56.8512 113.701 56.9964C113.247 57.1416 112.757 57.2143 112.23 57.2143C110.524 57.2143 109.045 56.5699 107.792 55.281C106.558 53.9922 105.941 52.3767 105.941 50.4344C105.941 48.4921 106.558 46.8766 107.792 45.5878C109.045 44.299 110.524 43.6546 112.23 43.6546C113.029 43.6546 113.746 43.827 114.381 44.1719C115.035 44.4987 115.489 44.8345 115.743 45.1794L116.124 45.6695V43.9813ZM115.879 52.3676V48.5012C115.861 48.4468 115.825 48.3832 115.77 48.3106C115.716 48.2198 115.598 48.0746 115.416 47.875C115.235 47.6753 115.035 47.4938 114.817 47.3304C114.599 47.167 114.309 47.0218 113.946 46.8947C113.601 46.7677 113.229 46.7041 112.829 46.7041C111.74 46.7041 110.869 47.0581 110.216 47.766C109.58 48.4558 109.263 49.3453 109.263 50.4344C109.263 51.5235 109.58 52.4221 110.216 53.13C110.869 53.8198 111.74 54.1647 112.829 54.1647C113.447 54.1647 114.009 54.0195 114.518 53.729C115.026 53.4205 115.38 53.1119 115.579 52.8033L115.879 52.3676Z" fill="#111827"/>
<path d="M129.037 43.6546C129.382 43.6546 129.736 43.6909 130.099 43.7635C130.48 43.8361 130.77 43.9087 130.97 43.9813L131.27 44.063L130.126 47.0037C129.727 46.804 129.209 46.7041 128.574 46.7041C127.993 46.7041 127.458 46.8494 126.968 47.1398C126.496 47.4302 126.16 47.7207 125.96 48.0111L125.688 48.4468V56.8875H122.42V43.9813H125.524V45.8601C125.561 45.8056 125.606 45.733 125.661 45.6422C125.715 45.5333 125.851 45.3518 126.069 45.0977C126.287 44.8435 126.514 44.6257 126.75 44.4442C127.004 44.2445 127.331 44.063 127.73 43.8996C128.147 43.7363 128.583 43.6546 129.037 43.6546Z" fill="#111827"/>
<path d="M144.859 36.3029V56.8875H141.837V55.1994C141.8 55.2538 141.755 55.3264 141.701 55.4172C141.646 55.5079 141.501 55.6713 141.265 55.9073C141.029 56.1433 140.775 56.352 140.503 56.5335C140.23 56.6969 139.867 56.8512 139.413 56.9964C138.96 57.1416 138.469 57.2143 137.943 57.2143C136.237 57.2143 134.757 56.5699 133.505 55.281C132.27 53.9922 131.653 52.3767 131.653 50.4344C131.653 48.4921 132.27 46.8766 133.505 45.5878C134.757 44.299 136.237 43.6546 137.943 43.6546C138.669 43.6546 139.332 43.7998 139.931 44.0902C140.548 44.3625 140.984 44.6348 141.238 44.9071L141.592 45.3427V36.3029H144.859ZM141.592 52.3676V48.5012C141.519 48.3741 141.41 48.2108 141.265 48.0111C141.138 47.8114 140.802 47.5482 140.257 47.2215C139.731 46.8766 139.15 46.7041 138.515 46.7041C137.426 46.7041 136.563 47.0581 135.928 47.766C135.293 48.4558 134.975 49.3453 134.975 50.4344C134.975 51.5235 135.293 52.4221 135.928 53.13C136.563 53.8198 137.426 54.1647 138.515 54.1647C138.914 54.1647 139.295 54.1012 139.658 53.9741C140.021 53.847 140.312 53.7018 140.53 53.5384C140.766 53.3569 140.965 53.1845 141.129 53.0211C141.292 52.8396 141.41 52.6853 141.483 52.5582L141.592 52.3676Z" fill="#111827"/>
<path d="M147.688 54.8726L149.513 52.5038C149.64 52.649 149.812 52.8214 150.03 53.0211C150.266 53.2208 150.72 53.4931 151.391 53.8379C152.081 54.1828 152.753 54.3553 153.406 54.3553C154.114 54.3553 154.695 54.2554 155.149 54.0558C155.621 53.8561 155.857 53.5657 155.857 53.1845C155.857 52.7851 155.694 52.5038 155.367 52.3404C155.04 52.177 154.35 51.9864 153.297 51.7686C150.103 51.097 148.505 49.7356 148.505 47.6844C148.505 46.6134 149.004 45.6785 150.003 44.8799C151.019 44.063 152.372 43.6546 154.06 43.6546C154.931 43.6546 155.766 43.7907 156.565 44.063C157.382 44.3171 157.981 44.5803 158.362 44.8526L158.906 45.2338L157.273 47.6299C156.293 46.8857 155.222 46.5135 154.06 46.5135C153.406 46.5135 152.853 46.6225 152.399 46.8403C151.945 47.0581 151.718 47.3576 151.718 47.7388C151.718 48.1019 151.918 48.3741 152.317 48.5557C152.717 48.719 153.533 48.9278 154.768 49.1819C156.22 49.4905 157.309 49.9352 158.035 50.5161C158.779 51.097 159.152 52.0046 159.152 53.2389C159.152 54.3644 158.616 55.3083 157.545 56.0707C156.492 56.8331 155.149 57.2143 153.515 57.2143C152.807 57.2143 152.118 57.1326 151.446 56.9692C150.792 56.8058 150.248 56.6152 149.812 56.3974C149.377 56.1614 148.986 55.9345 148.641 55.7167C148.315 55.4807 148.07 55.281 147.906 55.1177L147.688 54.8726Z" fill="#111827"/>
</svg>
