<svg width="362" height="49" viewBox="0 0 362 49" fill="none" xmlns="http://www.w3.org/2000/svg">
<g clip-path="url(#clip0_5_461)">
<path d="M156.752 1.51855V47.4825" stroke="#13293D" stroke-width="1.30811" stroke-linecap="square"/>
<path d="M176.803 28.9513C177.843 28.9513 178.742 28.5597 179.5 27.7764C180.258 26.9932 180.636 26.0114 180.636 24.8311C180.636 23.6507 180.258 22.6689 179.5 21.8857C178.742 21.1025 177.843 20.7109 176.803 20.7109C176.361 20.7109 175.949 20.8046 175.567 20.9922C175.185 21.1797 174.939 21.3314 174.829 21.4472C174.718 21.563 174.635 21.6596 174.58 21.7368V16.2432H172.588V28.7527H174.43V27.7268L174.513 27.8592C174.569 27.9364 174.66 28.0357 174.787 28.157C174.914 28.2784 175.064 28.3997 175.235 28.5211C175.407 28.6424 175.631 28.7444 175.907 28.8272C176.184 28.9099 176.482 28.9513 176.803 28.9513ZM176.455 27.098C176.068 27.098 175.711 26.996 175.384 26.7919C175.058 26.5878 174.853 26.4251 174.77 26.3038C174.688 26.1824 174.624 26.0831 174.58 26.0059V23.6562L174.646 23.5404C174.69 23.4632 174.762 23.3722 174.862 23.2674C174.961 23.1626 175.08 23.0578 175.219 22.953C175.357 22.8482 175.537 22.7572 175.758 22.68C175.979 22.6027 176.211 22.5641 176.455 22.5641C177.119 22.5641 177.644 22.7765 178.031 23.2012C178.418 23.6259 178.612 24.1692 178.612 24.8311C178.612 25.4929 178.418 26.0362 178.031 26.4609C177.644 26.8857 177.119 27.098 176.455 27.098ZM182.487 32.7571C183.859 32.7571 184.843 32.007 185.441 30.5067L189.257 20.9094H187.117L185.042 26.6512L182.387 20.9094H180.18L184.013 28.9347L183.698 29.7455C183.51 30.2199 183.325 30.5315 183.142 30.6804C182.96 30.8294 182.697 30.9038 182.354 30.9038C182.011 30.9038 181.663 30.7328 181.309 30.3909L180.379 31.9297L180.645 32.1283C180.811 32.2717 181.071 32.4124 181.425 32.5503C181.779 32.6881 182.133 32.7571 182.487 32.7571Z" fill="#13293D"/>
<path d="M246.857 27.997C247.184 27.997 247.49 27.9554 247.775 27.8718C248.059 27.7879 248.294 27.6873 248.479 27.5686C248.664 27.4502 248.828 27.3315 248.97 27.2128C249.112 27.0945 249.212 26.9935 249.269 26.9096L249.354 26.7844L251.041 28.4568C250.998 28.5128 250.941 28.582 250.87 28.6656C250.799 28.7492 250.628 28.8993 250.358 29.1148C250.088 29.3315 249.803 29.5228 249.504 29.6899C249.205 29.8574 248.817 30.0075 248.341 30.1391C247.864 30.2719 247.37 30.3381 246.857 30.3381C245.334 30.3381 244.047 29.8332 242.994 28.8225C241.94 27.8121 241.414 26.5825 241.414 25.1328C241.414 23.6694 241.94 22.436 242.994 21.4324C244.047 20.4289 245.335 19.9268 246.857 19.9268C247.654 19.9268 248.397 20.0803 249.088 20.3869C249.778 20.6936 250.265 21.0006 250.55 21.3069L250.998 21.767L249.227 23.3136C249.17 23.2304 249.081 23.1328 248.96 23.0213C248.839 22.9101 248.572 22.7569 248.159 22.5615C247.746 22.3667 247.312 22.2688 246.857 22.2688C246.017 22.2688 245.334 22.5475 244.807 23.1052C244.281 23.6629 244.018 24.3383 244.018 25.1328C244.018 25.9272 244.28 26.6036 244.807 27.1606C245.334 27.7187 246.017 27.997 246.857 27.997Z" fill="#13293D"/>
<path d="M260.006 20.1785H262.375V30.0877H260.006V28.7918C259.977 28.8334 259.942 28.889 259.899 28.9586C259.856 29.0282 259.742 29.1537 259.557 29.3352C259.372 29.5163 259.173 29.6732 258.96 29.8053C258.746 29.9383 258.462 30.0596 258.106 30.1713C257.75 30.2831 257.366 30.3385 256.953 30.3385C255.615 30.3385 254.459 29.8441 253.485 28.8539C252.51 27.8643 252.022 26.6241 252.022 25.1328C252.022 23.6414 252.51 22.4012 253.485 21.4116C254.459 20.4221 255.615 19.9268 256.953 19.9268C257.579 19.9268 258.145 20.056 258.651 20.3136C259.155 20.5718 259.508 20.8331 259.707 21.0978L260.006 21.4744V20.1785ZM259.814 26.6172V23.6486C259.799 23.607 259.771 23.5548 259.728 23.492C259.686 23.4289 259.593 23.3215 259.451 23.168C259.308 23.0145 259.152 22.8753 258.981 22.7494C258.811 22.6242 258.586 22.5127 258.309 22.4151C258.031 22.3179 257.735 22.2688 257.423 22.2688C256.569 22.2688 255.889 22.5373 255.384 23.0738C254.879 23.61 254.626 24.2964 254.626 25.1328C254.626 25.9691 254.879 26.6554 255.384 27.1917C255.889 27.7282 256.569 27.9967 257.423 27.9967C257.906 27.9967 258.348 27.8814 258.746 27.6515C259.144 27.4216 259.422 27.1883 259.579 26.9512L259.814 26.6172Z" fill="#13293D"/>
<path d="M270.358 19.9268C271.383 19.9268 272.258 20.2651 272.984 20.9412C273.709 21.6169 274.072 22.526 274.072 23.6694V30.0873H271.511V24.296C271.511 23.6135 271.326 23.1049 270.956 22.7699C270.586 22.4356 270.102 22.2681 269.504 22.2681C269.263 22.2681 269.028 22.3135 268.8 22.4039C268.573 22.4953 268.38 22.599 268.224 22.7174C268.067 22.8367 267.932 22.9578 267.818 23.083C267.704 23.2082 267.626 23.3129 267.584 23.3968L267.498 23.5435V30.087H264.937V20.1778H267.328V21.62C267.356 21.5781 267.395 21.519 267.445 21.4423C267.495 21.3656 267.609 21.2298 267.786 21.0347C267.964 20.8396 268.16 20.669 268.374 20.5223C268.587 20.376 268.871 20.2402 269.227 20.1154C269.582 19.9895 269.959 19.9268 270.358 19.9268Z" fill="#13293D"/>
<path d="M286.302 14.2819V30.0868H283.933V28.791C283.904 28.8326 283.869 28.8883 283.826 28.9578C283.784 29.0274 283.67 29.153 283.485 29.3344C283.3 29.5156 283.101 29.6724 282.887 29.8044C282.674 29.9374 282.389 30.0589 282.033 30.1705C281.678 30.2824 281.293 30.3375 280.88 30.3375C279.543 30.3375 278.386 29.8434 277.412 28.8531C276.437 27.8636 275.95 26.6233 275.95 25.132C275.95 23.6407 276.437 22.4003 277.412 21.4107C278.386 20.4212 279.543 19.9259 280.88 19.9259C281.45 19.9259 281.973 20.0338 282.449 20.25C282.926 20.4666 283.264 20.6792 283.463 20.8876L283.741 21.2218V14.2812L286.302 14.2819ZM283.741 26.6164V23.6477C283.684 23.5505 283.602 23.4254 283.495 23.2712C283.388 23.1184 283.125 22.9126 282.705 22.6544C282.285 22.3965 281.827 22.2677 281.328 22.2677C280.474 22.2677 279.798 22.536 279.301 23.0726C278.802 23.6088 278.553 24.2951 278.553 25.1315C278.553 25.9679 278.802 26.6542 279.301 27.1905C279.798 27.727 280.474 27.9956 281.328 27.9956C281.641 27.9956 281.94 27.9467 282.225 27.8491C282.509 27.7516 282.741 27.6367 282.919 27.5044C283.097 27.3717 283.249 27.2397 283.378 27.1066C283.506 26.9746 283.598 26.8596 283.656 26.7617L283.741 26.6164Z" fill="#13293D"/>
<path d="M289.654 18.1511C289.327 17.8305 289.163 17.4403 289.163 16.9798C289.163 16.52 289.326 16.1297 289.654 15.8091C289.981 15.4884 290.38 15.3281 290.85 15.3281C291.319 15.3281 291.718 15.4884 292.046 15.8091C292.373 16.1294 292.537 16.52 292.537 16.9798C292.537 17.4403 292.373 17.8301 292.046 18.1511C291.718 18.4714 291.319 18.6314 290.85 18.6314C290.38 18.6314 289.981 18.4718 289.654 18.1511ZM289.569 30.0883V20.179H292.13V30.0883H289.569Z" fill="#13293D"/>
<path d="M304.77 14.2819V30.0868H302.4V28.791C302.372 28.8326 302.336 28.8883 302.294 28.9578C302.251 29.0274 302.137 29.153 301.953 29.3344C301.767 29.5156 301.568 29.6724 301.355 29.8044C301.141 29.9374 300.856 30.0589 300.501 30.1705C300.145 30.2824 299.761 30.3375 299.348 30.3375C298.01 30.3375 296.854 29.8434 295.879 28.8531C294.904 27.8636 294.417 26.6233 294.417 25.132C294.417 23.6407 294.904 22.4003 295.879 21.4107C296.854 20.4212 298.01 19.9259 299.348 19.9259C299.917 19.9259 300.44 20.0338 300.917 20.25C301.393 20.4666 301.732 20.6792 301.931 20.8876L302.209 21.2218V14.2812L304.77 14.2819ZM302.209 26.6164V23.6477C302.151 23.5505 302.069 23.4254 301.963 23.2712C301.856 23.1184 301.593 22.9126 301.173 22.6544C300.753 22.3965 300.294 22.2677 299.797 22.2677C298.942 22.2677 298.266 22.536 297.768 23.0726C297.27 23.6088 297.021 24.2951 297.021 25.1315C297.021 25.9679 297.27 26.6542 297.768 27.1905C298.266 27.727 298.942 27.9956 299.797 27.9956C300.109 27.9956 300.408 27.9467 300.693 27.8491C300.978 27.7516 301.209 27.6367 301.387 27.5044C301.564 27.3717 301.718 27.2397 301.846 27.1066C301.974 26.9746 302.066 26.8596 302.123 26.7617L302.209 26.6164Z" fill="#13293D"/>
<path d="M314.932 20.1785H317.302V30.0877H314.932V28.7918C314.903 28.8334 314.868 28.889 314.825 28.9586C314.783 29.0282 314.669 29.1537 314.484 29.3352C314.299 29.5163 314.1 29.6733 313.886 29.8053C313.672 29.9383 313.388 30.0596 313.032 30.1713C312.677 30.2831 312.292 30.3385 311.879 30.3385C310.542 30.3385 309.385 29.8441 308.41 28.8539C307.436 27.8644 306.948 26.6241 306.948 25.1328C306.948 23.6414 307.436 22.4012 308.41 21.4116C309.385 20.4221 310.542 19.9268 311.879 19.9268C312.506 19.9268 313.071 20.0561 313.577 20.3136C314.082 20.5718 314.434 20.8331 314.634 21.0978L314.932 21.4744V20.1785ZM314.74 26.6173V23.6486C314.726 23.607 314.698 23.5548 314.655 23.492C314.612 23.4289 314.519 23.3215 314.378 23.168C314.235 23.0145 314.079 22.8753 313.908 22.7494C313.737 22.6243 313.513 22.5127 313.235 22.4152C312.958 22.3179 312.662 22.2688 312.349 22.2688C311.496 22.2688 310.816 22.5373 310.31 23.0738C309.806 23.6101 309.553 24.2964 309.553 25.1328C309.553 25.9691 309.806 26.6555 310.31 27.1917C310.816 27.7282 311.496 27.9967 312.349 27.9967C312.833 27.9967 313.274 27.8814 313.673 27.6515C314.071 27.4216 314.349 27.1883 314.506 26.9512L314.74 26.6173Z" fill="#13293D"/>
<path d="M319.05 22.4361V20.1787H321.035V17.2305H323.596V20.1787H326.649V22.4361H323.596V26.4291C323.596 27.4743 324.037 27.9972 324.92 27.9972C325.091 27.9972 325.265 27.9696 325.443 27.9136C325.621 27.858 325.752 27.8021 325.838 27.7461L325.987 27.6414L326.927 29.6905C326.286 30.123 325.475 30.3385 324.493 30.3385C323.497 30.3385 322.671 30.0148 322.017 29.3667C321.362 28.7183 321.035 27.8717 321.035 26.8265V22.4361H319.05Z" fill="#13293D"/>
<path d="M333.137 19.9268C334.56 19.9268 335.766 20.4152 336.755 21.3905C337.744 22.3664 338.239 23.5995 338.239 25.0911C338.239 25.4677 338.231 25.7809 338.217 26.0319H330.66C330.774 26.534 331.09 26.9935 331.611 27.4117C332.13 27.8299 332.759 28.0386 333.5 28.0386C334.026 28.0386 334.52 27.9554 334.983 27.7879C335.446 27.6208 335.776 27.454 335.976 27.2862L336.275 27.0355L337.556 28.9173C337.442 29.0286 337.271 29.1616 337.043 29.3144C336.816 29.4679 336.349 29.677 335.645 29.9417C334.94 30.2064 334.225 30.3387 333.5 30.3387C331.963 30.3387 330.671 29.8373 329.625 28.8338C328.579 27.8302 328.056 26.5965 328.056 25.1331C328.056 23.6697 328.54 22.4363 329.507 21.4328C330.475 20.4289 331.685 19.9268 333.137 19.9268ZM330.66 24.2128H335.677C335.648 23.7107 335.41 23.2512 334.962 22.8334C334.513 22.4148 333.905 22.206 333.137 22.206C332.382 22.206 331.795 22.4121 331.376 22.8224C330.956 23.2342 330.717 23.6974 330.66 24.2128Z" fill="#13293D"/>
<path d="M340.435 29.8578C340.108 29.5375 339.944 29.1466 339.944 28.6868C339.944 28.227 340.108 27.8371 340.435 27.5158C340.763 27.1958 341.161 27.0352 341.631 27.0352C342.1 27.0352 342.499 27.1958 342.826 27.5158C343.153 27.8368 343.317 28.227 343.317 28.6868C343.317 29.1466 343.153 29.5372 342.826 29.8578C342.499 30.1777 342.1 30.3384 341.631 30.3384C341.161 30.3387 340.763 30.1781 340.435 29.8578Z" fill="#F36B21"/>
<path d="M346.011 30.0863V14.2812H348.572V30.0863H346.011Z" fill="#13293D"/>
<path d="M350.576 34.1001L351.771 32.1559C352.227 32.5881 352.675 32.8039 353.116 32.8039C353.557 32.8039 353.895 32.7102 354.13 32.5215C354.365 32.3333 354.603 31.9395 354.846 31.3402L355.251 30.316L350.32 20.1768H353.159L356.575 27.4312L359.243 20.1768H361.997L357.087 32.3018C356.318 34.1975 355.052 35.1453 353.287 35.1453C352.831 35.1453 352.376 35.0584 351.921 34.884C351.465 34.7094 351.131 34.5321 350.918 34.3509L350.576 34.1001Z" fill="#13293D"/>
<path d="M228.189 39.2373C230.74 39.2373 232.808 37.1752 232.808 34.6314C232.808 32.0876 230.74 30.0254 228.189 30.0254C225.638 30.0254 223.57 32.0876 223.57 34.6314C223.57 37.1752 225.638 39.2373 228.189 39.2373Z" fill="#F36B21"/>
<path d="M205.094 24.4998C205.094 32.64 211.712 39.239 219.875 39.239C219.875 31 219.875 22 219.875 9.76074C211.712 9.76074 205.094 16.3597 205.094 24.4998Z" fill="#13293D"/>
<path d="M25.3765 27.3758L18.4319 46.5581C18.0824 47.5244 16.785 47.6725 16.2292 46.8092L0.198866 21.9479C-0.0134242 21.6188 -0.0580279 21.209 0.0757833 20.8408L7.0461 1.81513C7.39842 0.853108 8.69023 0.708138 9.24608 1.56519L25.2492 26.2703C25.4615 26.5994 25.5095 27.009 25.3765 27.3758Z" fill="#13293D"/>
<path d="M48.5878 27.3786L41.5975 46.5481C41.2463 47.5114 39.9517 47.658 39.3958 46.7975L26.7877 27.3151C26.5742 26.986 26.529 26.5755 26.6637 26.207L33.6699 7.08566C34.0222 6.12365 35.314 5.97867 35.8699 6.8363L48.4605 26.2708C48.676 26.5996 48.7218 27.0104 48.5878 27.3786Z" fill="#13293D"/>
<path d="M69.0044 26.9476H50.5179C49.656 26.9476 49.0572 26.0843 49.3556 25.272L56.0406 7.05719C56.3929 6.09688 57.6847 5.95021 58.2406 6.80896L70.0416 25.0238C70.5785 25.8505 69.9868 26.9476 69.0044 26.9476Z" fill="#13293D"/>
<path d="M74.5588 8.37415H76.4957L77.9117 11.9031L79.4003 8.37415H80.861L82.306 11.9031L83.78 8.37415H85.5431L82.2338 15.6073L80.0366 10.6979L77.8679 15.6073L74.5588 8.37415Z" fill="#13293D"/>
<path d="M86.8342 9.24571C87.5422 8.54866 88.4065 8.20056 89.4288 8.20056C90.4493 8.20056 91.3151 8.54866 92.0228 9.24571C92.7314 9.94332 93.0854 10.8004 93.0854 11.8169C93.0854 12.8243 92.7314 13.6788 92.0228 14.3807C91.3147 15.0828 90.4493 15.4335 89.4288 15.4335C88.4065 15.4335 87.5418 15.0828 86.8342 14.3807C86.1264 13.6785 85.7715 12.8243 85.7715 11.8169C85.7715 10.8007 86.1261 9.94332 86.8342 9.24571ZM88.0553 13.226C88.4026 13.6132 88.8599 13.8073 89.4288 13.8073C89.9968 13.8073 90.455 13.6132 90.8011 13.226C91.1482 12.8387 91.3216 12.3689 91.3216 11.8169C91.3216 11.2648 91.1485 10.7956 90.8011 10.4083C90.4546 10.0211 89.9964 9.827 89.4288 9.827C88.8596 9.827 88.4026 10.0211 88.0553 10.4083C87.709 10.7956 87.5353 11.2651 87.5353 11.8169C87.5353 12.3687 87.7092 12.8387 88.0553 13.226Z" fill="#13293D"/>
<path d="M97.8706 8.20056C98.0529 8.20056 98.2437 8.21986 98.441 8.25872C98.6384 8.29759 98.79 8.3356 98.8965 8.37447L99.0556 8.41759L98.4481 9.98617C98.2358 9.87978 97.9611 9.82644 97.6243 9.82644C97.3155 9.82644 97.0338 9.90388 96.7792 10.0591C96.5234 10.2142 96.3425 10.3689 96.2365 10.5241L96.092 10.7561V15.2587H94.3578V8.37447H96.0054V9.37677C96.0246 9.34784 96.0482 9.30699 96.0776 9.25308C96.107 9.20031 96.1789 9.10556 96.2945 8.96995C96.4099 8.83435 96.5333 8.71576 96.6634 8.6142C96.7935 8.51234 96.9672 8.41759 97.1834 8.3305C97.4002 8.24368 97.6295 8.20056 97.8706 8.20056Z" fill="#13293D"/>
<path d="M100.151 15.2594V4.98694H101.885V15.2594H100.151Z" fill="#13293D"/>
<path d="M110.373 4.98698V15.2594H108.768V14.359C108.749 14.3879 108.724 14.4265 108.696 14.4752C108.666 14.5235 108.589 14.6106 108.464 14.7369C108.339 14.8625 108.204 14.9712 108.059 15.0631C107.915 15.155 107.722 15.2398 107.481 15.3173C107.24 15.3948 106.98 15.433 106.701 15.433C105.795 15.433 105.012 15.09 104.352 14.4024C103.692 13.7147 103.362 12.8531 103.362 11.8165C103.362 10.781 103.692 9.91908 104.352 9.23167C105.012 8.54399 105.795 8.20043 106.701 8.20043C107.086 8.20043 107.44 8.27533 107.763 8.4254C108.086 8.57548 108.315 8.723 108.45 8.86826L108.637 9.10032V4.98669H110.373V4.98698ZM108.638 12.8485V10.7861C108.599 10.718 108.544 10.6309 108.472 10.5245C108.399 10.4175 108.221 10.2751 107.937 10.0955C107.653 9.91652 107.342 9.82688 107.005 9.82688C106.426 9.82688 105.968 10.0135 105.631 10.3866C105.295 10.7591 105.126 11.236 105.126 11.8167C105.126 12.398 105.295 12.8749 105.631 13.2474C105.968 13.6202 106.426 13.8072 107.005 13.8072C107.217 13.8072 107.418 13.7728 107.611 13.7053C107.804 13.6378 107.96 13.5578 108.081 13.4659C108.201 13.374 108.305 13.2815 108.391 13.1898C108.479 13.0979 108.542 13.0176 108.58 12.9504L108.638 12.8485Z" fill="#13293D"/>
<path d="M87.5132 26.0216L88.4821 24.7584C88.5493 24.8357 88.6436 24.9274 88.7638 25.0338C88.8846 25.1408 89.1249 25.286 89.4868 25.4699C89.8478 25.6543 90.2018 25.7459 90.5493 25.7459C90.9242 25.7459 91.2354 25.6932 91.4812 25.5859C91.7272 25.48 91.8502 25.3249 91.8502 25.1215C91.8502 24.9082 91.763 24.7586 91.5899 24.671C91.4162 24.5834 91.0502 24.4826 90.4915 24.3663C88.7954 24.0082 87.9473 23.282 87.9473 22.1875C87.9473 21.6161 88.2153 21.1148 88.7497 20.6842C89.284 20.2529 89.9997 20.0382 90.8971 20.0382C91.3587 20.0382 91.8041 20.1079 92.2324 20.2487C92.6615 20.3888 92.9768 20.5318 93.1796 20.6765L93.4678 20.8805L92.6005 22.1588C92.0805 21.7616 91.5123 21.5631 90.8969 21.5631C90.5491 21.5631 90.2546 21.6207 90.0147 21.7369C89.7728 21.8533 89.6524 22.013 89.6524 22.2167C89.6524 22.4102 89.7584 22.5532 89.9701 22.645C90.1824 22.737 90.6157 22.8507 91.2707 22.9858C92.0418 23.151 92.6225 23.3881 93.0124 23.6979C93.4034 24.0082 93.5985 24.4919 93.5985 25.1507C93.5985 25.7513 93.3167 26.254 92.7522 26.6611C92.1887 27.0679 91.4736 27.2705 90.6055 27.2705C90.2307 27.2705 89.8667 27.2274 89.515 27.1402C89.1632 27.0526 88.8716 26.9484 88.6398 26.8277C88.4089 26.7069 88.2043 26.5854 88.0261 26.4647C87.848 26.3434 87.7151 26.2398 87.6292 26.1522L87.5132 26.0216Z" fill="#13293D"/>
<path d="M94.3787 21.7802V20.2116H95.7224V18.1637H97.4571V20.2116H99.5235V21.7802H97.4571V24.5545C97.4571 25.2811 97.7556 25.644 98.3532 25.644C98.4684 25.644 98.5869 25.6246 98.7072 25.5852C98.8279 25.5469 98.9172 25.5084 98.9739 25.4695L99.0753 25.3968L99.7115 26.8205C99.2782 27.1203 98.7286 27.2704 98.064 27.2704C97.3897 27.2704 96.8302 27.046 96.3878 26.5954C95.944 26.145 95.7224 25.5566 95.7224 24.8305V21.7802H94.3787Z" fill="#13293D"/>
<path d="M108.756 21.7807V20.212H110.115V19.2352C110.115 18.3544 110.363 17.7027 110.86 17.2814C111.355 16.8604 111.926 16.6503 112.572 16.6503C112.851 16.6503 113.118 16.6791 113.374 16.7373C113.629 16.7949 113.815 16.8531 113.93 16.9112L114.09 17.0125L113.439 18.4803C113.265 18.3444 113.035 18.2764 112.745 18.2764C112.523 18.2764 112.318 18.3566 112.131 18.5164C111.943 18.6761 111.849 18.9448 111.849 19.3221V20.212H113.526V21.7807H111.849V27.0965H110.115V21.7807H108.756Z" fill="#13293D"/>
<path d="M114.353 21.7808V20.2121H115.711V18.1937C115.711 17.3127 115.96 16.661 116.456 16.2397C116.952 15.8182 117.523 15.608 118.168 15.608C118.448 15.608 118.715 15.6374 118.971 15.6957C119.226 15.7533 119.411 15.8114 119.528 15.8695L119.687 15.9708L119.036 17.4381C118.863 17.3022 118.631 17.2347 118.342 17.2347C118.12 17.2347 117.915 17.3144 117.728 17.4747C117.54 17.6344 117.446 17.903 117.446 18.2804V20.2121H119.122V21.7808H117.446V27.0966H115.711V21.7808H114.353Z" fill="#13293D"/>
<path d="M121.728 18.7898C122.046 18.7898 122.316 18.6782 122.538 18.4556C122.759 18.2329 122.87 17.9614 122.87 17.6421C122.87 17.3225 122.759 17.0515 122.538 16.8288C122.316 16.6061 122.046 16.4946 121.728 16.4946C121.411 16.4946 121.141 16.6061 120.919 16.8288C120.697 17.0515 120.587 17.3225 120.587 17.6421C120.587 17.9614 120.697 18.2329 120.919 18.4556C121.141 18.6782 121.411 18.7898 121.728 18.7898Z" fill="#13293D"/>
<path d="M122.582 21.0798C122.582 21.559 122.196 21.9476 121.719 21.9476C121.242 21.9476 120.855 21.5592 120.855 21.0798V27.0968H122.59" fill="#13293D"/>
<path d="M121.719 21.9472C122.195 21.9472 122.582 21.5586 122.582 21.0794C122.582 20.6001 122.195 20.2115 121.719 20.2115C121.242 20.2115 120.855 20.6001 120.855 21.0794C120.855 21.5586 121.242 21.9472 121.719 21.9472Z" fill="#13293D"/>
<path d="M128.274 20.0372C128.967 20.0372 129.561 20.2715 130.051 20.7413C130.543 21.2111 130.789 21.8423 130.789 22.637V27.0958H129.054V23.0727C129.054 22.5984 128.929 22.2449 128.678 22.0122C128.427 21.7803 128.1 21.6636 127.696 21.6636C127.531 21.6636 127.372 21.6957 127.218 21.7578C127.064 21.8216 126.934 21.894 126.829 21.9762C126.722 22.0583 126.631 22.143 126.553 22.2302C126.477 22.3178 126.424 22.3902 126.394 22.4486L126.337 22.5499V27.0962H124.602V20.2113H126.221V21.2137C126.24 21.1847 126.267 21.1439 126.301 21.0899C126.334 21.0373 126.411 20.9425 126.532 20.8069C126.652 20.671 126.785 20.5527 126.929 20.4511C127.074 20.3493 127.266 20.2545 127.508 20.1674C127.749 20.0805 128.004 20.0372 128.274 20.0372Z" fill="#13293D"/>
<path d="M105.84 21.1163L105.632 20.8604C105.493 20.6743 105.261 20.4879 104.913 20.3244C104.566 20.1383 104.195 20.0459 103.754 20.0459C102.851 20.0459 102.064 20.3949 101.416 21.0697C100.767 21.7685 100.419 22.6296 100.419 23.6534C100.419 24.7017 100.743 25.5628 101.416 26.2381C102.064 26.9359 102.851 27.2614 103.754 27.2614C104.032 27.2614 104.288 27.2149 104.542 27.1457C104.774 27.0754 104.983 26.9829 105.122 26.8898C105.261 26.7967 105.4 26.68 105.515 26.5636C105.632 26.4472 105.723 26.3542 105.747 26.3072C105.771 26.2611 105.793 26.2152 105.816 26.1913V27.0989H107.415V20.232H105.816V21.1163H105.84ZM105.701 24.702L105.539 24.9341C105.422 25.0974 105.238 25.2597 104.983 25.4234C104.704 25.5856 104.403 25.6555 104.08 25.6555C103.5 25.6555 103.037 25.4694 102.689 25.0974C102.342 24.7246 102.18 24.2358 102.18 23.6772C102.18 23.0948 102.342 22.6296 102.689 22.2565C103.036 21.884 103.5 21.6984 104.08 21.6984C104.287 21.6984 104.496 21.7212 104.681 21.7915C104.866 21.8607 105.029 21.9311 105.144 22.0242C105.261 22.1171 105.376 22.2102 105.469 22.3033C105.562 22.4196 105.632 22.4894 105.654 22.5359C105.678 22.5825 105.701 22.6056 105.701 22.6522V24.702Z" fill="#13293D"/>
<path d="M137.381 26.4296C136.904 27.0243 136.255 27.3219 135.429 27.3219C134.519 27.3219 133.729 26.976 133.066 26.2835C132.4 25.591 132.068 24.7231 132.068 23.6803C132.068 22.6368 132.4 21.7688 133.066 21.0765C133.729 20.384 134.517 20.0382 135.429 20.0382C135.858 20.0382 136.243 20.1284 136.587 20.3085C136.93 20.4893 137.171 20.6714 137.307 20.8573L137.511 21.1204V20.2135H139.127V27.2053C139.127 28.346 138.77 29.2116 138.057 29.8011C137.344 30.3906 136.463 30.6865 135.417 30.6865C134.833 30.6865 134.269 30.5761 133.72 30.3574C133.172 30.1375 132.772 29.9157 132.519 29.6919L132.142 29.3698L133.132 28.024C133.199 28.1014 133.298 28.1967 133.429 28.3095C133.56 28.4214 133.828 28.5726 134.23 28.7634C134.632 28.9528 135.028 29.0482 135.417 29.0482C136.066 29.0482 136.555 28.887 136.886 28.565C137.216 28.2435 137.381 27.8098 137.381 27.2634V26.4296ZM137.381 24.7186V22.6419C137.341 22.5732 137.286 22.4856 137.214 22.3787C137.14 22.2712 136.96 22.127 136.674 21.9466C136.388 21.7664 136.075 21.6763 135.735 21.6763C135.153 21.6763 134.692 21.8641 134.353 22.2397C134.013 22.6147 133.843 23.0948 133.843 23.6803C133.843 24.265 134.013 24.7452 134.353 25.1209C134.692 25.496 135.154 25.6838 135.735 25.6838C136.075 25.6838 136.38 25.6034 136.653 25.4421C136.924 25.2815 137.113 25.1178 137.22 24.9521L137.381 24.7186Z" fill="#13293D"/>
<path d="M65.1115 36.802H67.5718V47.308H65.1115V45.9338C65.0819 45.9781 65.045 46.0372 65.0007 46.1111C64.9563 46.185 64.8381 46.318 64.646 46.5101C64.4539 46.7022 64.2471 46.8721 64.0254 47.0199C63.8038 47.1529 63.5082 47.2785 63.1388 47.3967C62.7694 47.5149 62.3705 47.574 61.9419 47.574C60.553 47.574 59.3487 47.0494 58.3291 46.0003C57.3243 44.9512 56.8219 43.6361 56.8219 42.055C56.8219 40.4739 57.3243 39.1588 58.3291 38.1097C59.3487 37.0605 60.553 36.536 61.9419 36.536C62.5921 36.536 63.1758 36.6764 63.693 36.9571C64.2249 37.2231 64.5943 37.4964 64.8012 37.7772L65.1115 38.1762V36.802ZM64.912 43.6287V40.4813C64.8972 40.437 64.8677 40.3852 64.8234 40.3261C64.779 40.2523 64.683 40.134 64.5352 39.9715C64.3874 39.809 64.2249 39.6612 64.0476 39.5282C63.8703 39.3952 63.6338 39.277 63.3383 39.1736C63.0576 39.0701 62.7546 39.0184 62.4296 39.0184C61.543 39.0184 60.8337 39.3066 60.3018 39.8828C59.7846 40.4444 59.526 41.1684 59.526 42.055C59.526 42.9416 59.7846 43.673 60.3018 44.2493C60.8337 44.8108 61.543 45.0916 62.4296 45.0916C62.932 45.0916 63.39 44.9733 63.8038 44.7369C64.2175 44.4857 64.5057 44.2345 64.6682 43.9833L64.912 43.6287Z" fill="#13293D"/>
<path d="M68.9957 36.802H71.9658L74.1379 42.188L76.4209 36.802H78.6595L80.876 42.188L83.1368 36.802H85.8408L80.7651 47.84L77.3961 40.3483L74.0714 47.84L68.9957 36.802Z" fill="#13293D"/>
<path d="M94.5273 36.802H96.9876V47.308H94.5273V45.9338C94.4978 45.9781 94.4608 46.0372 94.4165 46.1111C94.3722 46.185 94.254 46.318 94.0619 46.5101C93.8698 46.7022 93.6629 46.8721 93.4413 47.0199C93.2196 47.1529 92.9241 47.2785 92.5547 47.3967C92.1853 47.5149 91.7863 47.574 91.3578 47.574C89.9688 47.574 88.7645 47.0494 87.7449 46.0003C86.7401 44.9512 86.2377 43.6361 86.2377 42.055C86.2377 40.4739 86.7401 39.1588 87.7449 38.1097C88.7645 37.0605 89.9688 36.536 91.3578 36.536C92.0079 36.536 92.5916 36.6764 93.1088 36.9571C93.6407 37.2231 94.0101 37.4964 94.217 37.7772L94.5273 38.1762V36.802ZM94.3278 43.6287V40.4813C94.3131 40.437 94.2835 40.3852 94.2392 40.3261C94.1949 40.2523 94.0988 40.134 93.951 39.9715C93.8033 39.809 93.6407 39.6612 93.4634 39.5282C93.2861 39.3952 93.0497 39.277 92.7541 39.1736C92.4734 39.0701 92.1705 39.0184 91.8454 39.0184C90.9588 39.0184 90.2495 39.3066 89.7176 39.8828C89.2004 40.4444 88.9418 41.1684 88.9418 42.055C88.9418 42.9416 89.2004 43.673 89.7176 44.2493C90.2495 44.8108 90.9588 45.0916 91.8454 45.0916C92.3478 45.0916 92.8059 44.9733 93.2196 44.7369C93.6334 44.4857 93.9215 44.2345 94.084 43.9833L94.3278 43.6287Z" fill="#13293D"/>
<path d="M105.039 36.536C105.32 36.536 105.608 36.5655 105.903 36.6246C106.213 36.6837 106.45 36.7429 106.612 36.802L106.856 36.8685L105.925 39.2622C105.6 39.0997 105.179 39.0184 104.662 39.0184C104.189 39.0184 103.753 39.1366 103.354 39.3731C102.97 39.6095 102.697 39.8459 102.534 40.0823L102.313 40.437V47.308H99.6527V36.802H102.18V38.3313C102.209 38.287 102.246 38.2279 102.29 38.154C102.335 38.0653 102.445 37.9176 102.623 37.7107C102.8 37.5038 102.985 37.3265 103.177 37.1788C103.384 37.0162 103.65 36.8684 103.975 36.7355C104.315 36.6025 104.669 36.536 105.039 36.536Z" fill="#13293D"/>
<path d="M117.919 30.5515V47.308H115.458V45.9338C115.429 45.9781 115.392 46.0372 115.347 46.1111C115.303 46.185 115.185 46.318 114.993 46.5101C114.801 46.7022 114.594 46.8721 114.372 47.0199C114.151 47.1529 113.855 47.2785 113.486 47.3967C113.116 47.5149 112.717 47.574 112.289 47.574C110.9 47.574 109.695 47.0494 108.676 46.0003C107.671 44.9512 107.169 43.6361 107.169 42.055C107.169 40.4739 107.671 39.1588 108.676 38.1097C109.695 37.0605 110.9 36.536 112.289 36.536C112.88 36.536 113.419 36.6542 113.907 36.8906C114.409 37.1123 114.764 37.3339 114.971 37.5556L115.259 37.9102V30.5515H117.919ZM115.259 43.6287V40.4813C115.2 40.3779 115.111 40.2449 114.993 40.0823C114.889 39.9198 114.616 39.7055 114.173 39.4396C113.744 39.1588 113.271 39.0184 112.754 39.0184C111.868 39.0184 111.166 39.3066 110.649 39.8828C110.131 40.4444 109.873 41.1684 109.873 42.055C109.873 42.9416 110.131 43.673 110.649 44.2493C111.166 44.8108 111.868 45.0916 112.754 45.0916C113.079 45.0916 113.39 45.0398 113.685 44.9364C113.981 44.833 114.217 44.7147 114.394 44.5818C114.586 44.434 114.749 44.2936 114.882 44.1606C115.015 44.0129 115.111 43.8873 115.17 43.7838L115.259 43.6287Z" fill="#13293D"/>
<path d="M120.222 45.6678L121.707 43.7395C121.81 43.8577 121.951 43.9981 122.128 44.1606C122.32 44.3232 122.689 44.5448 123.236 44.8256C123.798 45.1063 124.344 45.2467 124.876 45.2467C125.453 45.2467 125.925 45.1654 126.295 45.0029C126.679 44.8403 126.871 44.6039 126.871 44.2936C126.871 43.9685 126.738 43.7395 126.472 43.6065C126.206 43.4735 125.645 43.3184 124.788 43.1411C122.187 42.5943 120.887 41.4861 120.887 39.8164C120.887 38.9445 121.293 38.1836 122.106 37.5334C122.933 36.8684 124.034 36.536 125.408 36.536C126.118 36.536 126.797 36.6468 127.447 36.8685C128.112 37.0753 128.6 37.2896 128.91 37.5112L129.354 37.8215L128.024 39.772C127.226 39.1662 126.354 38.8633 125.408 38.8633C124.876 38.8633 124.426 38.9519 124.056 39.1292C123.687 39.3066 123.502 39.5504 123.502 39.8607C123.502 40.1562 123.665 40.3779 123.99 40.5256C124.315 40.6586 124.98 40.8285 125.985 41.0354C127.167 41.2866 128.053 41.6486 128.644 42.1215C129.25 42.5943 129.553 43.3332 129.553 44.3379C129.553 45.2541 129.117 46.0225 128.245 46.6431C127.388 47.2637 126.295 47.574 124.965 47.574C124.389 47.574 123.827 47.5075 123.28 47.3745C122.749 47.2415 122.305 47.0864 121.951 46.9091C121.596 46.717 121.278 46.5323 120.998 46.3549C120.732 46.1628 120.532 46.0003 120.399 45.8673L120.222 45.6678Z" fill="#13293D"/>
</g>
<defs>
<clipPath id="clip0_5_461">
<rect width="362" height="49" fill="white"/>
</clipPath>
</defs>
</svg>
